<?xml version="1.0" encoding="utf-8"?>
<!-- Generator: Adobe Illustrator 24.0.2, SVG Export Plug-In . SVG Version: 6.00 Build 0)  -->
<svg version="1.1" id="Capa_1" xmlns="http://www.w3.org/2000/svg" xmlns:xlink="http://www.w3.org/1999/xlink" x="0px" y="0px"
	 viewBox="0 0 328 54" style="enable-background:new 0 0 328 54;" xml:space="preserve">
<style type="text/css">
	.st0{fill:#2A2AFF;}
</style>
<circle class="st0" cx="49.8" cy="27.3" r="24.8"/>
<g>
	<path d="M39.1,14v11.8H61V14H67v28.3H61V29H39.1v13.3h-5.8V14H39.1z"/>
</g>
<g>
	<path d="M99.6,31.9L96,35.6h-4.7l11.9-11.7h5.5l12,11.7h-4.8l-3.8-3.7H99.6z M111.1,30.7l-3.4-3.4c-0.8-0.8-1.3-1.5-1.8-2.1h-0.1
		c-0.5,0.7-1.1,1.4-1.8,2.1l-3.4,3.4H111.1z"/>
	<path d="M136.9,24c2-0.1,5.1-0.2,8.3-0.2c4.5,0,7.5,0.3,9.6,0.8c1.8,0.5,2.9,1.1,2.9,2.1c0,1.1-2.2,2.1-5.9,2.6v0
		c3.3,0.3,7.2,1.2,7.2,2.9c0,1-1.2,1.8-3,2.3c-2.5,0.7-6.4,1.1-12.1,1.1c-3.1,0-5.5-0.1-7-0.1V24z M141.4,28.8h4.1
		c4.8,0,7.6-0.8,7.6-2c0-1.4-3.1-1.9-7.7-1.9c-2.1,0-3.3,0.1-4,0.1V28.8z M141.4,34.4c0.9,0.1,2.2,0.1,3.8,0.1c4.7,0,9-0.6,9-2.3
		c0-1.6-4.1-2.3-9.1-2.3h-3.8V34.4z"/>
	<path d="M180.7,23.9v11.7h-4.5V23.9H180.7z"/>
	<path d="M204.2,25.2h-10.7v-1.3h26v1.3h-10.7v10.4h-4.6V25.2z"/>
	<path d="M240.2,31.9l-3.6,3.7h-4.7l11.9-11.7h5.5l12,11.7h-4.8l-3.8-3.7H240.2z M251.7,30.7l-3.4-3.4c-0.8-0.8-1.3-1.5-1.8-2.1
		h-0.1c-0.5,0.7-1.1,1.4-1.8,2.1l-3.4,3.4H251.7z"/>
	<path d="M282,25.2h-10.7v-1.3h26v1.3h-10.7v10.4H282V25.2z"/>
</g>
</svg>
