<?xml version="1.0" encoding="utf-8"?>
<!-- Generator: Adobe Illustrator 24.0.2, SVG Export Plug-In . SVG Version: 6.00 Build 0)  -->
<svg version="1.1" id="Capa_1" xmlns="http://www.w3.org/2000/svg" xmlns:xlink="http://www.w3.org/1999/xlink" x="0px" y="0px"
	 viewBox="0 0 328 54" style="enable-background:new 0 0 328 54;" xml:space="preserve">
<style type="text/css">
	.st0{fill:#2A3CFF;}
</style>
<circle class="st0" cx="39.9" cy="27" r="24.6"/>
<g>
	<path d="M30,10.8v12.8h19.2V10.8h5.2v30.5h-5.2V27H30v14.3h-5.1V10.8H30z"/>
</g>
<g>
	<path d="M77.5,36.3l-4.2,4.9h-5.4l13.8-15.7h6.3l13.8,15.7h-5.6l-4.3-4.9H77.5z M90.8,34.8l-4-4.5c-0.9-1-1.5-2-2.1-2.9h-0.1
		c-0.6,0.9-1.3,1.9-2,2.8l-4,4.5H90.8z"/>
	<path d="M120.4,25.8c2.3-0.2,5.9-0.3,9.6-0.3c5.2,0,8.6,0.3,11.1,1.1c2.1,0.6,3.4,1.5,3.4,2.8c0,1.5-2.6,2.8-6.9,3.4v0
		c3.8,0.4,8.4,1.6,8.4,3.9c0,1.4-1.4,2.4-3.4,3.1c-2.8,1-7.4,1.5-14,1.5c-3.6,0-6.4-0.1-8.1-0.2V25.8z M125.7,32.2h4.7
		c5.5,0,8.8-1.1,8.8-2.6c0-1.8-3.6-2.6-8.9-2.6c-2.4,0-3.8,0.1-4.6,0.1V32.2z M125.7,39.7c1,0.1,2.5,0.1,4.4,0.1
		c5.4,0,10.4-0.8,10.4-3.1c0-2.1-4.7-3-10.5-3h-4.3V39.7z"/>
	<path d="M171,25.6v15.7h-5.2V25.6H171z"/>
	<path d="M198.1,27.3h-12.3v-1.7h30v1.7h-12.4v14h-5.3V27.3z"/>
	<path d="M239.6,36.3l-4.2,4.9h-5.4l13.8-15.7h6.3l13.8,15.7h-5.6l-4.3-4.9H239.6z M252.8,34.8l-4-4.5c-0.9-1-1.5-2-2.1-2.9h-0.1
		c-0.6,0.9-1.3,1.9-2,2.8l-4,4.5H252.8z"/>
	<path d="M287.8,27.3h-12.3v-1.7h30v1.7h-12.4v14h-5.3V27.3z"/>
</g>
</svg>
